<svg width="32" height="32" viewBox="0 0 32 32" fill="none" xmlns="http://www.w3.org/2000/svg">
<rect width="32" height="32" rx="16" fill="#2B3633"/>
<path d="M15.625 12.6055C17.3477 12.6055 18.7695 14.0273 18.7695 15.75C18.7695 17.5 17.3477 18.8945 15.625 18.8945C13.875 18.8945 12.4805 17.5 12.4805 15.75C12.4805 14.0273 13.875 12.6055 15.625 12.6055ZM15.625 17.8008C16.7461 17.8008 17.6484 16.8984 17.6484 15.75C17.6484 14.6289 16.7461 13.7266 15.625 13.7266C14.4766 13.7266 13.5742 14.6289 13.5742 15.75C13.5742 16.8984 14.5039 17.8008 15.625 17.8008ZM19.6172 12.4961C19.6172 12.9062 19.2891 13.2344 18.8789 13.2344C18.4688 13.2344 18.1406 12.9062 18.1406 12.4961C18.1406 12.0859 18.4688 11.7578 18.8789 11.7578C19.2891 11.7578 19.6172 12.0859 19.6172 12.4961ZM21.6953 13.2344C21.75 14.2461 21.75 17.2812 21.6953 18.293C21.6406 19.2773 21.4219 20.125 20.7109 20.8633C20 21.5742 19.125 21.793 18.1406 21.8477C17.1289 21.9023 14.0938 21.9023 13.082 21.8477C12.0977 21.793 11.25 21.5742 10.5117 20.8633C9.80078 20.125 9.58203 19.2773 9.52734 18.293C9.47266 17.2812 9.47266 14.2461 9.52734 13.2344C9.58203 12.25 9.80078 11.375 10.5117 10.6641C11.25 9.95312 12.0977 9.73438 13.082 9.67969C14.0938 9.625 17.1289 9.625 18.1406 9.67969C19.125 9.73438 20 9.95312 20.7109 10.6641C21.4219 11.375 21.6406 12.25 21.6953 13.2344ZM20.3828 19.3594C20.7109 18.5664 20.6289 16.6523 20.6289 15.75C20.6289 14.875 20.7109 12.9609 20.3828 12.1406C20.1641 11.6211 19.7539 11.1836 19.2344 10.9922C18.4141 10.6641 16.5 10.7461 15.625 10.7461C14.7227 10.7461 12.8086 10.6641 12.0156 10.9922C11.4688 11.2109 11.0586 11.6211 10.8398 12.1406C10.5117 12.9609 10.5938 14.875 10.5938 15.75C10.5938 16.6523 10.5117 18.5664 10.8398 19.3594C11.0586 19.9062 11.4688 20.3164 12.0156 20.5352C12.8086 20.8633 14.7227 20.7812 15.625 20.7812C16.5 20.7812 18.4141 20.8633 19.2344 20.5352C19.7539 20.3164 20.1914 19.9062 20.3828 19.3594Z" fill="#FFFAEC"/>
</svg>
