<svg width="14" height="15" viewBox="0 0 14 15" fill="none" xmlns="http://www.w3.org/2000/svg">
<path d="M7 0.96875C10.7461 0.96875 13.7812 4.00391 13.7812 7.75C13.7812 11.4961 10.7461 14.5312 7 14.5312C3.25391 14.5312 0.21875 11.4961 0.21875 7.75C0.21875 4.00391 3.25391 0.96875 7 0.96875ZM9.51562 9.52734C9.57031 9.47266 9.625 9.36328 9.625 9.25391C9.625 9.11719 9.54297 9.00781 9.46094 8.92578L7.875 7.75V3.8125C7.875 3.59375 7.65625 3.375 7.4375 3.375H6.5625C6.31641 3.375 6.125 3.59375 6.125 3.8125V8.07812C6.125 8.43359 6.26172 8.73438 6.53516 8.92578L8.36719 10.293C8.42188 10.3477 8.53125 10.4023 8.61328 10.4023C8.77734 10.4023 8.88672 10.3203 8.96875 10.2109L9.51562 9.52734Z" fill="#BF7322"/>
</svg>
