<svg width="114" height="114" viewBox="0 0 114 114" fill="none" xmlns="http://www.w3.org/2000/svg">
<circle cx="56.6803" cy="56.6803" r="54.8662" fill="white" stroke="#06659B" stroke-width="3.62825"/>
<path d="M39.1474 83.6191C39.1474 83.5824 39.1572 83.5543 39.1767 83.5348C39.1987 83.5153 39.2292 83.5055 39.2683 83.5055H39.8581C39.8947 83.5055 39.9228 83.5153 39.9423 83.5348C39.9643 83.5543 39.9753 83.5824 39.9753 83.6191V87.3847C39.9753 87.7022 39.913 87.9805 39.7885 88.2199C39.6639 88.4567 39.4857 88.6399 39.2537 88.7693C39.0241 88.8988 38.7567 88.9635 38.4515 88.9635C38.1877 88.9635 37.946 88.9061 37.7262 88.7913C37.5088 88.6765 37.3367 88.5154 37.2097 88.3078C37.1828 88.2663 37.1694 88.2309 37.1694 88.2015C37.1694 88.1674 37.1828 88.1393 37.2097 88.1173L37.6199 87.74C37.6468 87.718 37.6737 87.707 37.7005 87.707C37.7396 87.707 37.775 87.7266 37.8068 87.7656C37.8776 87.8804 37.9679 87.9708 38.0778 88.0367C38.1902 88.1026 38.3147 88.1356 38.4515 88.1356C38.6615 88.1356 38.83 88.066 38.957 87.9268C39.0839 87.7852 39.1474 87.6008 39.1474 87.3737V83.6191ZM42.2317 85.5898C42.5223 85.5898 42.7763 85.6398 42.9937 85.74C43.2134 85.8401 43.3832 85.983 43.5028 86.1685C43.6249 86.3541 43.686 86.5727 43.686 86.8242V88.7547C43.686 88.7889 43.6762 88.8157 43.6567 88.8353C43.6396 88.8548 43.6152 88.8646 43.5834 88.8646H43.1365C43.117 88.8646 43.0987 88.8585 43.0816 88.8462C43.0669 88.834 43.0571 88.8194 43.0523 88.8023L42.9973 88.4799C42.885 88.6289 42.736 88.7473 42.5504 88.8353C42.3648 88.9207 42.1414 88.9635 41.8801 88.9635C41.653 88.9635 41.4503 88.922 41.272 88.8389C41.0962 88.7559 40.9582 88.6375 40.8581 88.4836C40.7604 88.3298 40.7116 88.1503 40.7116 87.9451C40.7116 87.6472 40.8068 87.4225 40.9973 87.2711C41.1878 87.1197 41.4576 87.0428 41.8068 87.0404L42.8911 87.0367V86.8828C42.8911 86.6899 42.8288 86.5373 42.7043 86.425C42.5797 86.3102 42.421 86.2528 42.2281 86.2528C42.0767 86.2528 41.9216 86.2711 41.7629 86.3077C41.6066 86.3419 41.4723 86.3908 41.3599 86.4543C41.3257 86.4689 41.2952 86.4762 41.2683 86.4762C41.2171 86.4762 41.1841 86.4579 41.1694 86.4213L40.9936 86.0806C40.9839 86.0611 40.979 86.0391 40.979 86.0147C40.979 85.9561 41.0144 85.9073 41.0852 85.8682C41.2293 85.7803 41.4051 85.7119 41.6127 85.663C41.8227 85.6142 42.029 85.5898 42.2317 85.5898ZM42.1035 88.3261C42.2452 88.3261 42.3758 88.2968 42.4955 88.2382C42.6176 88.1796 42.714 88.099 42.7849 87.9964C42.8557 87.8939 42.8911 87.7803 42.8911 87.6558V87.5752H41.913C41.7836 87.5752 41.6835 87.6045 41.6127 87.6631C41.5419 87.7192 41.5064 87.7986 41.5064 87.9012C41.5064 88.0257 41.5638 88.1283 41.6786 88.2089C41.7934 88.287 41.935 88.3261 42.1035 88.3261ZM49.0304 85.685C49.0524 85.685 49.0707 85.6924 49.0853 85.707C49.1 85.7217 49.1073 85.74 49.1073 85.7619C49.1073 85.7742 49.1036 85.79 49.0963 85.8096L47.8106 88.7767C47.7984 88.8035 47.7801 88.8255 47.7556 88.8426C47.7312 88.8572 47.7031 88.8646 47.6714 88.8646H47.2794C47.2501 88.8646 47.222 88.8572 47.1952 88.8426C47.1708 88.8255 47.1524 88.8035 47.1402 88.7767L46.5322 87.4286L45.9681 88.7767C45.9583 88.8011 45.9388 88.8218 45.9095 88.8389C45.8826 88.856 45.8545 88.8646 45.8252 88.8646H45.393C45.3637 88.8646 45.3343 88.856 45.305 88.8389C45.2782 88.8218 45.2599 88.8011 45.2501 88.7767L43.9863 85.8096C43.979 85.79 43.9754 85.7742 43.9754 85.7619C43.9754 85.7375 43.9827 85.7192 43.9973 85.707C44.0144 85.6924 44.0352 85.685 44.0596 85.685H44.7006C44.7324 85.685 44.7605 85.6936 44.7849 85.7107C44.8093 85.7278 44.8264 85.7497 44.8362 85.7766L45.6091 87.9598L46.404 85.7766C46.4137 85.7497 46.4308 85.7278 46.4552 85.7107C46.4797 85.6936 46.5078 85.685 46.5395 85.685H47.1366C47.161 85.685 47.1805 85.6924 47.1952 85.707C47.2098 85.7192 47.2172 85.7363 47.2172 85.7583C47.2172 85.7729 47.2135 85.79 47.2062 85.8096L46.8802 86.5898L47.4333 87.9378L48.2501 85.7729C48.2746 85.7143 48.3136 85.685 48.3674 85.685H49.0304ZM50.796 85.5898C51.0866 85.5898 51.3406 85.6398 51.5579 85.74C51.7777 85.8401 51.9474 85.983 52.0671 86.1685C52.1892 86.3541 52.2502 86.5727 52.2502 86.8242V88.7547C52.2502 88.7889 52.2404 88.8157 52.2209 88.8353C52.2038 88.8548 52.1794 88.8646 52.1476 88.8646H51.7008C51.6812 88.8646 51.6629 88.8585 51.6458 88.8462C51.6312 88.834 51.6214 88.8194 51.6165 88.8023L51.5616 88.4799C51.4492 88.6289 51.3003 88.7473 51.1147 88.8353C50.9291 88.9207 50.7056 88.9635 50.4443 88.9635C50.2172 88.9635 50.0145 88.922 49.8363 88.8389C49.6604 88.7559 49.5225 88.6375 49.4223 88.4836C49.3246 88.3298 49.2758 88.1503 49.2758 87.9451C49.2758 87.6472 49.371 87.4225 49.5615 87.2711C49.752 87.1197 50.0218 87.0428 50.3711 87.0404L51.4553 87.0367V86.8828C51.4553 86.6899 51.3931 86.5373 51.2685 86.425C51.144 86.3102 50.9852 86.2528 50.7923 86.2528C50.6409 86.2528 50.4858 86.2711 50.3271 86.3077C50.1708 86.3419 50.0365 86.3908 49.9242 86.4543C49.89 86.4689 49.8595 86.4762 49.8326 86.4762C49.7813 86.4762 49.7483 86.4579 49.7337 86.4213L49.5579 86.0806C49.5481 86.0611 49.5432 86.0391 49.5432 86.0147C49.5432 85.9561 49.5786 85.9073 49.6494 85.8682C49.7935 85.7803 49.9693 85.7119 50.1769 85.663C50.3869 85.6142 50.5933 85.5898 50.796 85.5898ZM50.6678 88.3261C50.8094 88.3261 50.9401 88.2968 51.0597 88.2382C51.1818 88.1796 51.2783 88.099 51.3491 87.9964C51.4199 87.8939 51.4553 87.7803 51.4553 87.6558V87.5752H50.4773C50.3479 87.5752 50.2477 87.6045 50.1769 87.6631C50.1061 87.7192 50.0707 87.7986 50.0707 87.9012C50.0707 88.0257 50.1281 88.1283 50.2429 88.2089C50.3576 88.287 50.4993 88.3261 50.6678 88.3261ZM54.4847 83.6447C54.4847 83.6007 54.4969 83.5678 54.5213 83.5458C54.5457 83.5214 54.5799 83.5092 54.6239 83.5092H58.1221C58.1636 83.5092 58.1966 83.5214 58.221 83.5458C58.2454 83.5702 58.2576 83.6032 58.2576 83.6447V84.1722C58.2576 84.2161 58.2454 84.2515 58.221 84.2784C58.1966 84.3028 58.1636 84.315 58.1221 84.315H56.7887V88.7547C56.7887 88.8011 56.7765 88.8365 56.7521 88.8609C56.7277 88.8829 56.6935 88.8939 56.6496 88.8939H56.1001C56.0561 88.8939 56.0219 88.8829 55.9975 88.8609C55.9731 88.8365 55.9609 88.8011 55.9609 88.7547V84.315H54.6239C54.5824 84.315 54.5482 84.3028 54.5213 84.2784C54.4969 84.254 54.4847 84.2198 54.4847 84.1758V83.6447ZM59.4078 85.5934C59.7131 85.5934 59.989 85.6692 60.2357 85.8206C60.4823 85.972 60.6728 86.1771 60.8071 86.436C60.9439 86.6924 61.0098 86.9732 61.0049 87.2785C61.0025 87.381 60.9683 87.4616 60.9024 87.5202C60.8364 87.5764 60.7583 87.6045 60.6679 87.6045H58.5873C58.6532 87.7901 58.7631 87.9427 58.917 88.0624C59.0733 88.1796 59.2491 88.2382 59.4445 88.2382C59.6545 88.2382 59.8792 88.1552 60.1185 87.9891C60.1453 87.9744 60.1685 87.9671 60.1881 87.9671C60.2149 87.9671 60.2394 87.9818 60.2613 88.0111L60.3895 88.1906C60.4481 88.2687 60.4958 88.3346 60.5324 88.3884C60.5471 88.4128 60.5544 88.4372 60.5544 88.4616C60.5544 88.4909 60.5422 88.5166 60.5177 88.5386C60.1905 88.8194 59.8291 88.9598 59.4335 88.9598C59.1233 88.9598 58.8376 88.8841 58.5763 88.7327C58.3175 88.5813 58.1111 88.3774 57.9573 88.121C57.8059 87.8621 57.7302 87.58 57.7302 87.2748C57.7302 86.9671 57.8034 86.685 57.9499 86.4286C58.0989 86.1722 58.3016 85.9695 58.558 85.8206C58.8144 85.6692 59.0977 85.5934 59.4078 85.5934ZM59.4005 86.37C59.1929 86.37 59.0122 86.4286 58.8584 86.5458C58.7045 86.6606 58.6044 86.8132 58.558 87.0037H60.1807C60.1368 86.8132 60.0464 86.6606 59.9097 86.5458C59.7729 86.4286 59.6032 86.37 59.4005 86.37ZM63.3896 85.5861C63.6509 85.5861 63.878 85.6447 64.0709 85.7619C64.2638 85.8792 64.4116 86.0464 64.5141 86.2638C64.6167 86.4811 64.668 86.7351 64.668 87.0257V88.7547C64.668 88.7864 64.6582 88.8121 64.6387 88.8316C64.6216 88.8487 64.596 88.8572 64.5618 88.8572H63.9757C63.9415 88.8572 63.9146 88.8487 63.8951 88.8316C63.878 88.8121 63.8694 88.7864 63.8694 88.7547V87.022C63.8694 86.8975 63.8377 86.7839 63.7742 86.6814C63.7132 86.5764 63.6289 86.4946 63.5215 86.436C63.4165 86.3773 63.3017 86.348 63.1771 86.348C63.0453 86.348 62.9232 86.3798 62.8108 86.4433C62.6985 86.5043 62.6094 86.591 62.5434 86.7034C62.4775 86.8132 62.4445 86.9366 62.4445 87.0733V88.7583C62.4445 88.8292 62.4103 88.8646 62.342 88.8646H61.7559C61.6875 88.8646 61.6533 88.8292 61.6533 88.7583V85.7876C61.6533 85.7558 61.6618 85.7314 61.6789 85.7143C61.6985 85.6948 61.7253 85.685 61.7595 85.685H62.2247C62.2833 85.685 62.3175 85.707 62.3273 85.751L62.3896 86.0806C62.5068 85.9268 62.6521 85.8059 62.8255 85.718C63.0013 85.6301 63.1893 85.5861 63.3896 85.5861ZM67.4226 88.7034C67.6693 88.7034 67.8829 88.7425 68.0637 88.8206C68.2444 88.8963 68.3836 89.0062 68.4812 89.1503C68.5814 89.2968 68.6314 89.469 68.6314 89.6668C68.6314 89.9134 68.5643 90.1247 68.43 90.3005C68.2957 90.4788 68.104 90.6143 67.8549 90.7071C67.6082 90.8023 67.3201 90.8499 66.9904 90.8499C66.7413 90.8499 66.4861 90.8292 66.2248 90.7877C65.9659 90.7486 65.7462 90.6924 65.5654 90.6192C65.541 90.607 65.5215 90.5899 65.5068 90.5679C65.4946 90.5484 65.4885 90.5264 65.4885 90.502C65.4885 90.4873 65.4922 90.4702 65.4995 90.4507L65.6717 90.0221C65.6814 89.9977 65.6961 89.9781 65.7156 89.9635C65.7352 89.9513 65.7571 89.9452 65.7816 89.9452C65.7913 89.9452 65.806 89.9476 65.8255 89.9525C65.9769 90.0087 66.1589 90.0538 66.3713 90.088C66.5838 90.1222 66.7901 90.1393 66.9904 90.1393C67.2785 90.1393 67.5057 90.1039 67.6717 90.0331C67.8378 89.9623 67.9208 89.8609 67.9208 89.729C67.9208 89.6143 67.8793 89.5325 67.7963 89.4836C67.7157 89.4348 67.5911 89.4104 67.4226 89.4104H66.4702C66.2602 89.4104 66.0722 89.3737 65.9061 89.3005C65.7425 89.2296 65.6143 89.1271 65.5215 88.9928C65.4311 88.8609 65.386 88.7046 65.386 88.5239C65.386 88.3749 65.4189 88.2394 65.4849 88.1173C65.5532 87.9952 65.646 87.9024 65.7633 87.8389C65.668 87.7217 65.5948 87.5898 65.5435 87.4433C65.4922 87.2968 65.4665 87.1405 65.4665 86.9744C65.4665 86.7082 65.5252 86.4701 65.6424 86.2601C65.7596 86.0501 65.922 85.8853 66.1296 85.7656C66.3396 85.646 66.5752 85.5861 66.8365 85.5861C66.9 85.5861 66.9806 85.5959 67.0783 85.6154C67.1784 85.6325 67.2761 85.6569 67.3713 85.6887H68.3567C68.4031 85.6887 68.4397 85.7009 68.4666 85.7253C68.4935 85.7497 68.5069 85.7851 68.5069 85.8315V86.1979C68.5069 86.2369 68.4922 86.2711 68.4629 86.3004C68.4361 86.3273 68.4007 86.3407 68.3567 86.3407H68.027C68.1589 86.541 68.2248 86.7534 68.2248 86.9781C68.2273 87.2369 68.1674 87.4702 68.0453 87.6777C67.9257 87.8853 67.7596 88.0477 67.5472 88.1649C67.3347 88.2821 67.0954 88.3407 66.8292 88.3407C66.629 88.3407 66.4373 88.3005 66.2541 88.2199C66.2053 88.2418 66.1662 88.2748 66.1369 88.3188C66.11 88.3627 66.0966 88.414 66.0966 88.4726C66.0966 88.541 66.1308 88.5972 66.1992 88.6411C66.27 88.6826 66.3603 88.7034 66.4702 88.7034H67.4226ZM66.8402 86.3224C66.723 86.3224 66.6155 86.3517 66.5178 86.4103C66.4226 86.4665 66.3469 86.5446 66.2907 86.6447C66.2346 86.7424 66.2065 86.8511 66.2065 86.9708C66.2065 87.088 66.2333 87.1954 66.2871 87.2931C66.3432 87.3883 66.4189 87.4641 66.5142 87.5202C66.6119 87.5764 66.7193 87.6045 66.8365 87.6045C66.9586 87.6045 67.0685 87.5776 67.1662 87.5239C67.2663 87.4677 67.3445 87.392 67.4006 87.2968C67.4593 87.1991 67.4886 87.0916 67.4886 86.9744C67.4886 86.8523 67.4593 86.7424 67.4006 86.6447C67.3445 86.5446 67.2663 86.4665 67.1662 86.4103C67.0685 86.3517 66.9599 86.3224 66.8402 86.3224ZM70.4227 85.5898C70.7133 85.5898 70.9672 85.6398 71.1846 85.74C71.4044 85.8401 71.5741 85.983 71.6938 86.1685C71.8159 86.3541 71.8769 86.5727 71.8769 86.8242V88.7547C71.8769 88.7889 71.8671 88.8157 71.8476 88.8353C71.8305 88.8548 71.8061 88.8646 71.7743 88.8646H71.3274C71.3079 88.8646 71.2896 88.8585 71.2725 88.8462C71.2578 88.834 71.2481 88.8194 71.2432 88.8023L71.1882 88.4799C71.0759 88.6289 70.927 88.7473 70.7414 88.8353C70.5558 88.9207 70.3323 88.9635 70.071 88.9635C69.8439 88.9635 69.6412 88.922 69.4629 88.8389C69.2871 88.7559 69.1491 88.6375 69.049 88.4836C68.9513 88.3298 68.9025 88.1503 68.9025 87.9451C68.9025 87.6472 68.9977 87.4225 69.1882 87.2711C69.3787 87.1197 69.6485 87.0428 69.9978 87.0404L71.082 87.0367V86.8828C71.082 86.6899 71.0197 86.5373 70.8952 86.425C70.7707 86.3102 70.6119 86.2528 70.419 86.2528C70.2676 86.2528 70.1125 86.2711 69.9538 86.3077C69.7975 86.3419 69.6632 86.3908 69.5509 86.4543C69.5167 86.4689 69.4861 86.4762 69.4593 86.4762C69.408 86.4762 69.375 86.4579 69.3604 86.4213L69.1846 86.0806C69.1748 86.0611 69.1699 86.0391 69.1699 86.0147C69.1699 85.9561 69.2053 85.9073 69.2761 85.8682C69.4202 85.7803 69.596 85.7119 69.8036 85.663C70.0136 85.6142 70.22 85.5898 70.4227 85.5898ZM70.2945 88.3261C70.4361 88.3261 70.5668 88.2968 70.6864 88.2382C70.8085 88.1796 70.905 88.099 70.9758 87.9964C71.0466 87.8939 71.082 87.7803 71.082 87.6558V87.5752H70.104C69.9746 87.5752 69.8744 87.6045 69.8036 87.6631C69.7328 87.7192 69.6974 87.7986 69.6974 87.9012C69.6974 88.0257 69.7548 88.1283 69.8695 88.2089C69.9843 88.287 70.126 88.3261 70.2945 88.3261ZM74.4484 85.5898C74.7097 85.5898 74.9368 85.6484 75.1297 85.7656C75.3226 85.8828 75.4704 86.0501 75.5729 86.2675C75.6755 86.4848 75.7268 86.74 75.7268 87.033V88.7583C75.7268 88.7901 75.717 88.8157 75.6975 88.8353C75.6804 88.8548 75.6547 88.8646 75.6206 88.8646H75.0345C75.0027 88.8646 74.9771 88.8548 74.9575 88.8353C74.938 88.8157 74.9282 88.7901 74.9282 88.7583V87.0257C74.9282 86.9012 74.8965 86.7876 74.833 86.685C74.7719 86.5825 74.6877 86.5019 74.5802 86.4433C74.4752 86.3822 74.3605 86.3517 74.2359 86.3517C74.104 86.3517 73.9819 86.3834 73.8696 86.4469C73.7573 86.508 73.6681 86.5947 73.6022 86.707C73.5363 86.8169 73.5033 86.9415 73.5033 87.0807V88.7657C73.5033 88.8316 73.4691 88.8646 73.4007 88.8646H72.8073C72.7414 88.8646 72.7084 88.8316 72.7084 88.7657V83.6007C72.7084 83.5372 72.7414 83.5055 72.8073 83.5055H73.4007C73.4691 83.5055 73.5033 83.5372 73.5033 83.6007V86.0184C73.6205 85.8841 73.7609 85.779 73.9246 85.7033C74.0906 85.6276 74.2652 85.5898 74.4484 85.5898Z" fill="#393130"/>
<path d="M34.2588 77.8571C34.4329 77.9135 34.5863 78.0068 34.7188 78.1368C34.8513 78.2644 34.9531 78.4165 35.0242 78.5931C35.0978 78.7698 35.1346 78.9575 35.1346 79.1562C35.1346 79.4727 35.0659 79.7475 34.9285 79.9806C34.7936 80.2112 34.5986 80.3878 34.3434 80.5105C34.0882 80.6332 33.784 80.6945 33.4307 80.6945H31.4103C31.3392 80.6945 31.3036 80.6589 31.3036 80.5878V75.4245C31.3036 75.3534 31.3392 75.3178 31.4103 75.3178H33.2688C33.6049 75.3178 33.8932 75.3767 34.1336 75.4944C34.3765 75.6098 34.5618 75.7766 34.6893 75.9949C34.8169 76.2133 34.8807 76.4721 34.8807 76.7715C34.8807 76.9996 34.823 77.2131 34.7077 77.4118C34.5949 77.6105 34.4452 77.759 34.2588 77.8571ZM32.1279 76.0649V77.5737H33.2725C33.427 77.5737 33.5632 77.5431 33.681 77.4817C33.7987 77.4179 33.8895 77.3296 33.9533 77.2168C34.0195 77.1015 34.0527 76.969 34.0527 76.8193C34.0527 76.5911 33.9815 76.4084 33.8392 76.271C33.6969 76.1336 33.508 76.0649 33.2725 76.0649H32.1279ZM33.4307 79.9474C33.6049 79.9474 33.7583 79.9119 33.8907 79.8407C34.0232 79.7696 34.125 79.6702 34.1962 79.5426C34.2698 79.4126 34.3066 79.2629 34.3066 79.0936C34.3066 78.9244 34.2698 78.7759 34.1962 78.6483C34.125 78.5208 34.0232 78.4226 33.8907 78.3539C33.7583 78.2852 33.6049 78.2509 33.4307 78.2509H32.1279V79.9474H33.4307ZM37.1661 77.4081C37.458 77.4081 37.7132 77.4584 37.9316 77.559C38.1524 77.6596 38.3229 77.8031 38.4431 77.9896C38.5658 78.1761 38.6271 78.3956 38.6271 78.6483V80.5878C38.6271 80.6221 38.6173 80.6491 38.5977 80.6688C38.5805 80.6884 38.556 80.6982 38.5241 80.6982H38.0751C38.0555 80.6982 38.0371 80.6921 38.0199 80.6798C38.0052 80.6675 37.9953 80.6528 37.9904 80.6356L37.9352 80.3118C37.8224 80.4614 37.6727 80.5804 37.4863 80.6688C37.2998 80.7546 37.0753 80.7976 36.8128 80.7976C36.5846 80.7976 36.381 80.7559 36.2019 80.6724C36.0252 80.589 35.8866 80.47 35.786 80.3155C35.6879 80.1609 35.6388 79.9806 35.6388 79.7745C35.6388 79.4752 35.7345 79.2494 35.9259 79.0973C36.1172 78.9452 36.3883 78.8679 36.7392 78.8655L37.8285 78.8618V78.7072C37.8285 78.5134 37.766 78.3601 37.6408 78.2472C37.5157 78.1319 37.3562 78.0742 37.1624 78.0742C37.0103 78.0742 36.8545 78.0926 36.695 78.1294C36.538 78.1638 36.4031 78.2129 36.2902 78.2767C36.2559 78.2914 36.2252 78.2987 36.1982 78.2987C36.1467 78.2987 36.1136 78.2803 36.0988 78.2435L35.9222 77.9013C35.9124 77.8816 35.9075 77.8596 35.9075 77.835C35.9075 77.7761 35.943 77.7271 36.0142 77.6878C36.1589 77.5995 36.3356 77.5308 36.5441 77.4817C36.7551 77.4327 36.9624 77.4081 37.1661 77.4081ZM37.0373 80.1572C37.1796 80.1572 37.3108 80.1278 37.4311 80.0689C37.5537 80.01 37.6506 79.929 37.7218 79.826C37.7929 79.723 37.8285 79.6089 37.8285 79.4837V79.4028H36.8459C36.7159 79.4028 36.6153 79.4322 36.5441 79.4911C36.473 79.5475 36.4374 79.6273 36.4374 79.7303C36.4374 79.8554 36.4951 79.9585 36.6104 80.0394C36.7257 80.118 36.868 80.1572 37.0373 80.1572ZM42.4876 80.5363C42.5048 80.5608 42.5134 80.5853 42.5134 80.6099C42.5134 80.6516 42.4864 80.6786 42.4324 80.6908H41.7258C41.6939 80.6933 41.6669 80.6896 41.6448 80.6798C41.6228 80.6675 41.6019 80.6442 41.5823 80.6099L40.5886 79.2372L40.2611 79.6089V80.5988C40.2611 80.6651 40.2268 80.6982 40.1581 80.6982H39.5619C39.4956 80.6982 39.4625 80.6651 39.4625 80.5988V75.4098C39.4625 75.346 39.4956 75.3141 39.5619 75.3141H40.1581C40.2268 75.3141 40.2611 75.346 40.2611 75.4098V78.8802L41.413 77.5664C41.4375 77.5271 41.4719 77.5075 41.516 77.5075C41.5283 77.5075 41.5516 77.51 41.586 77.5149H42.2042C42.2558 77.5222 42.2815 77.5455 42.2815 77.5848C42.2815 77.6093 42.2717 77.6338 42.2521 77.6584L41.2179 78.8213L42.4876 80.5363ZM43.4702 76.5396C43.3819 76.5396 43.2997 76.5175 43.2236 76.4734C43.1476 76.4292 43.0862 76.3703 43.0396 76.2967C42.9955 76.2207 42.9734 76.1385 42.9734 76.0502C42.9734 75.9618 42.9955 75.8796 43.0396 75.8036C43.0862 75.7275 43.1476 75.6674 43.2236 75.6233C43.2997 75.5791 43.3819 75.557 43.4702 75.557C43.5585 75.557 43.6407 75.5791 43.7168 75.6233C43.7928 75.6674 43.8529 75.7275 43.8971 75.8036C43.9413 75.8796 43.9633 75.9618 43.9633 76.0502C43.9633 76.1385 43.9413 76.2207 43.8971 76.2967C43.8529 76.3703 43.7928 76.4292 43.7168 76.4734C43.6407 76.5175 43.5585 76.5396 43.4702 76.5396ZM43.7646 77.5038C43.7965 77.5038 43.821 77.5124 43.8382 77.5296C43.8578 77.5468 43.8677 77.5713 43.8677 77.6032V80.5988C43.8677 80.6307 43.8578 80.6553 43.8382 80.6724C43.821 80.6896 43.7965 80.6982 43.7646 80.6982H43.1684C43.1022 80.6982 43.0691 80.6651 43.0691 80.5988V77.6032C43.0691 77.5369 43.1022 77.5038 43.1684 77.5038H43.7646ZM46.5027 78.8434C46.5027 78.8017 46.5149 78.7698 46.5395 78.7477C46.5664 78.7232 46.5971 78.7109 46.6315 78.7109H48.512C48.5513 78.7109 48.582 78.722 48.604 78.744C48.6261 78.7637 48.6372 78.7931 48.6372 78.8324V79.3218C48.6372 79.3611 48.6237 79.3917 48.5967 79.4138C48.5721 79.4334 48.5402 79.4433 48.501 79.4433H46.6315C46.5971 79.4433 46.5664 79.4334 46.5395 79.4138C46.5149 79.3917 46.5027 79.3611 46.5027 79.3218V78.8434ZM51.2133 80.1057C51.1593 80.0689 51.1323 80.0272 51.1323 79.9806C51.1323 79.9511 51.1433 79.9205 51.1654 79.8886L51.4672 79.4506C51.4991 79.4089 51.5347 79.3881 51.5739 79.3881C51.6058 79.3881 51.6414 79.4003 51.6807 79.4249C51.8524 79.5647 52.0671 79.6825 52.3247 79.7782C52.5823 79.8738 52.8571 79.9217 53.149 79.9217C53.3797 79.9217 53.5882 79.891 53.7747 79.8297C53.9636 79.7683 54.112 79.6788 54.22 79.561C54.3304 79.4433 54.3856 79.301 54.3856 79.1341C54.3856 78.9722 54.323 78.8373 54.1979 78.7293C54.0752 78.6189 53.9243 78.5318 53.7452 78.468C53.5661 78.4042 53.3392 78.3368 53.0644 78.2656C52.689 78.165 52.3787 78.0558 52.1333 77.9381C51.888 77.8203 51.6954 77.667 51.5555 77.4781C51.4181 77.2891 51.3494 77.0524 51.3494 76.7678C51.3494 76.4562 51.4292 76.1875 51.5886 75.9618C51.7506 75.7337 51.9751 75.5607 52.2621 75.4429C52.5492 75.3227 52.8792 75.2626 53.2521 75.2626C53.5759 75.2626 53.8875 75.308 54.1868 75.3988C54.4862 75.4871 54.7425 75.6134 54.956 75.7778C54.9977 75.8122 55.0186 75.8502 55.0186 75.8919C55.0186 75.9213 55.0075 75.9532 54.9854 75.9876L54.68 76.4255C54.6481 76.4697 54.6101 76.4918 54.5659 76.4918C54.5389 76.4918 54.5033 76.4795 54.4592 76.455C54.3144 76.3666 54.1868 76.298 54.0764 76.2489C53.966 76.1974 53.8446 76.1593 53.7121 76.1348C53.5821 76.1078 53.4287 76.0943 53.2521 76.0943C53.0583 76.0943 52.8792 76.1225 52.7148 76.179C52.5529 76.2329 52.4228 76.3114 52.3247 76.4145C52.229 76.5151 52.1812 76.6328 52.1812 76.7678C52.1812 76.9125 52.2351 77.034 52.3431 77.1321C52.451 77.2278 52.5798 77.3026 52.7295 77.3566C52.8816 77.4106 53.0742 77.467 53.3073 77.5259C53.7244 77.6437 54.0654 77.7627 54.3304 77.8829C54.5953 78.0006 54.81 78.1613 54.9744 78.365C55.1388 78.5662 55.221 78.8225 55.221 79.1341C55.221 79.4653 55.129 79.7536 54.945 79.999C54.7634 80.2419 54.5156 80.4283 54.2016 80.5584C53.8875 80.6859 53.5367 80.7497 53.149 80.7497C52.7712 80.7497 52.4302 80.697 52.126 80.5915C51.8217 80.486 51.5175 80.324 51.2133 80.1057ZM58.8165 77.5075C58.8852 77.5075 58.9195 77.5431 58.9195 77.6142V80.5988C58.9195 80.6307 58.9097 80.6565 58.8901 80.6761C58.8729 80.6933 58.8472 80.7019 58.8128 80.7019H58.3417C58.2853 80.7019 58.2522 80.6786 58.2424 80.632L58.1798 80.3044C58.0621 80.459 57.9148 80.5804 57.7382 80.6688C57.564 80.7571 57.3763 80.8012 57.1751 80.8012C56.9126 80.8012 56.6844 80.7424 56.4906 80.6246C56.2968 80.5068 56.1484 80.3388 56.0453 80.1204C55.9423 79.9021 55.8908 79.6457 55.8908 79.3513V77.6179C55.8908 77.5836 55.9006 77.5578 55.9202 77.5406C55.9398 77.521 55.9656 77.5112 55.9975 77.5112H56.5863C56.6207 77.5112 56.6464 77.521 56.6636 77.5406C56.6832 77.5578 56.693 77.5836 56.693 77.6179V79.3586C56.693 79.4837 56.7237 79.5978 56.785 79.7009C56.8488 79.8039 56.9335 79.8861 57.039 79.9474C57.1469 80.0063 57.2635 80.0358 57.3886 80.0358C57.5211 80.0358 57.6425 80.0051 57.7529 79.9438C57.8658 79.88 57.9553 79.7929 58.0216 79.6825C58.0878 79.5696 58.1209 79.4433 58.1209 79.3034V77.6142C58.1209 77.5431 58.1553 77.5075 58.224 77.5075H58.8165ZM62.8389 80.5363C62.8561 80.5608 62.8647 80.5853 62.8647 80.6099C62.8647 80.6516 62.8377 80.6786 62.7837 80.6908H62.0771C62.0452 80.6933 62.0182 80.6896 61.9962 80.6798C61.9741 80.6675 61.9532 80.6442 61.9336 80.6099L60.9399 79.2372L60.6124 79.6089V80.5988C60.6124 80.6651 60.5781 80.6982 60.5094 80.6982H59.9132C59.8469 80.6982 59.8138 80.6651 59.8138 80.5988V75.4098C59.8138 75.346 59.8469 75.3141 59.9132 75.3141H60.5094C60.5781 75.3141 60.6124 75.346 60.6124 75.4098V78.8802L61.7643 77.5664C61.7888 77.5271 61.8232 77.5075 61.8673 77.5075C61.8796 77.5075 61.9029 77.51 61.9373 77.5149H62.5555C62.6071 77.5222 62.6328 77.5455 62.6328 77.5848C62.6328 77.6093 62.623 77.6338 62.6034 77.6584L61.5693 78.8213L62.8389 80.5363ZM62.9751 79.1047C62.9751 78.7956 63.0511 78.5122 63.2032 78.2546C63.3578 77.9945 63.5664 77.7896 63.8289 77.64C64.0914 77.4879 64.3797 77.4118 64.6937 77.4118C65.0053 77.4118 65.2923 77.4879 65.5549 77.64C65.8174 77.7896 66.0247 77.9945 66.1768 78.2546C66.3289 78.5122 66.405 78.7956 66.405 79.1047C66.405 79.4138 66.3277 79.6972 66.1731 79.9548C66.021 80.2124 65.8137 80.4173 65.5512 80.5694C65.2911 80.7191 65.0053 80.7939 64.6937 80.7939C64.3797 80.7939 64.0914 80.7191 63.8289 80.5694C63.5664 80.4197 63.3578 80.2161 63.2032 79.9585C63.0511 79.6984 62.9751 79.4138 62.9751 79.1047ZM63.7773 79.1047C63.7773 79.2691 63.8178 79.4212 63.8988 79.561C63.9798 79.7009 64.0902 79.8125 64.23 79.8959C64.3699 79.9769 64.5232 80.0174 64.69 80.0174C64.8569 80.0174 65.0102 79.9769 65.15 79.8959C65.2923 79.8125 65.404 79.7021 65.4849 79.5647C65.5659 79.4249 65.6064 79.2715 65.6064 79.1047C65.6064 78.9379 65.5659 78.7845 65.4849 78.6447C65.404 78.5024 65.2923 78.3907 65.15 78.3098C65.0102 78.2264 64.8569 78.1846 64.69 78.1846C64.5232 78.1846 64.3699 78.2264 64.23 78.3098C64.0902 78.3907 63.9798 78.5024 63.8988 78.6447C63.8178 78.7845 63.7773 78.9379 63.7773 79.1047ZM68.7971 77.4081C69.0596 77.4081 69.2878 77.467 69.4816 77.5848C69.6754 77.7025 69.8239 77.8706 69.9269 78.089C70.0299 78.3073 70.0815 78.5637 70.0815 78.8581V80.5915C70.0815 80.6234 70.0717 80.6491 70.052 80.6688C70.0349 80.6884 70.0091 80.6982 69.9747 80.6982H69.3859C69.354 80.6982 69.3283 80.6884 69.3086 80.6688C69.289 80.6491 69.2792 80.6234 69.2792 80.5915V78.8508C69.2792 78.7256 69.2473 78.6115 69.1835 78.5085C69.1222 78.4055 69.0375 78.3245 68.9296 78.2656C68.8241 78.2043 68.7088 78.1736 68.5836 78.1736C68.4512 78.1736 68.3285 78.2055 68.2156 78.2693C68.1028 78.3306 68.0132 78.4177 67.947 78.5306C67.8807 78.641 67.8476 78.7661 67.8476 78.906V80.5988C67.8476 80.6651 67.8133 80.6982 67.7446 80.6982H67.1484C67.0821 80.6982 67.049 80.6651 67.049 80.5988V75.4098C67.049 75.346 67.0821 75.3141 67.1484 75.3141H67.7446C67.8133 75.3141 67.8476 75.346 67.8476 75.4098V77.8387C67.9654 77.7038 68.1064 77.5983 68.2708 77.5222C68.4377 77.4462 68.6131 77.4081 68.7971 77.4081ZM72.2233 77.4081C72.5153 77.4081 72.7704 77.4584 72.9888 77.559C73.2096 77.6596 73.3801 77.8031 73.5003 77.9896C73.623 78.1761 73.6844 78.3956 73.6844 78.6483V80.5878C73.6844 80.6221 73.6745 80.6491 73.6549 80.6688C73.6377 80.6884 73.6132 80.6982 73.5813 80.6982H73.1323C73.1127 80.6982 73.0943 80.6921 73.0771 80.6798C73.0624 80.6675 73.0526 80.6528 73.0477 80.6356L72.9925 80.3118C72.8796 80.4614 72.73 80.5804 72.5435 80.6688C72.357 80.7546 72.1325 80.7976 71.87 80.7976C71.6419 80.7976 71.4382 80.7559 71.2591 80.6724C71.0825 80.589 70.9439 80.47 70.8433 80.3155C70.7451 80.1609 70.6961 79.9806 70.6961 79.7745C70.6961 79.4752 70.7917 79.2494 70.9831 79.0973C71.1745 78.9452 71.4456 78.8679 71.7964 78.8655L72.8858 78.8618V78.7072C72.8858 78.5134 72.8232 78.3601 72.6981 78.2472C72.5729 78.1319 72.4135 78.0742 72.2196 78.0742C72.0675 78.0742 71.9117 78.0926 71.7523 78.1294C71.5952 78.1638 71.4603 78.2129 71.3474 78.2767C71.3131 78.2914 71.2824 78.2987 71.2554 78.2987C71.2039 78.2987 71.1708 78.2803 71.1561 78.2435L70.9794 77.9013C70.9696 77.8816 70.9647 77.8596 70.9647 77.835C70.9647 77.7761 71.0003 77.7271 71.0714 77.6878C71.2162 77.5995 71.3928 77.5308 71.6014 77.4817C71.8124 77.4327 72.0197 77.4081 72.2233 77.4081ZM72.0945 80.1572C72.2368 80.1572 72.3681 80.1278 72.4883 80.0689C72.611 80.01 72.7079 79.929 72.779 79.826C72.8502 79.723 72.8858 79.6089 72.8858 79.4837V79.4028H71.9032C71.7731 79.4028 71.6725 79.4322 71.6014 79.4911C71.5302 79.5475 71.4947 79.6273 71.4947 79.7303C71.4947 79.8554 71.5523 79.9585 71.6676 80.0394C71.7829 80.118 71.9252 80.1572 72.0945 80.1572ZM77.048 77.7025C77.0726 77.7197 77.0848 77.743 77.0848 77.7725C77.0848 77.7945 77.0775 77.8166 77.0627 77.8387L76.7867 78.2656C76.7696 78.2975 76.7426 78.3135 76.7058 78.3135C76.6837 78.3135 76.6665 78.3073 76.6542 78.2951L76.6285 78.273C76.5598 78.219 76.48 78.1785 76.3893 78.1515C76.2985 78.1245 76.2102 78.111 76.1243 78.111C75.9771 78.111 75.8409 78.1466 75.7158 78.2178C75.5931 78.2865 75.495 78.3809 75.4214 78.5011C75.3502 78.6214 75.3147 78.7526 75.3147 78.8949V80.5915C75.3147 80.6626 75.2803 80.6982 75.2116 80.6982H74.6228C74.5541 80.6982 74.5197 80.6626 74.5197 80.5915V77.6069C74.5197 77.575 74.5283 77.5504 74.5455 77.5333C74.5651 77.5136 74.5921 77.5038 74.6265 77.5038H75.0939C75.1527 77.5038 75.1871 77.5259 75.1969 77.5701L75.2631 77.9307C75.376 77.7688 75.5195 77.6412 75.6937 77.548C75.8704 77.4523 76.0544 77.4045 76.2457 77.4045C76.4028 77.4045 76.5512 77.4302 76.691 77.4817C76.8333 77.5333 76.9523 77.6069 77.048 77.7025ZM77.9607 76.5396C77.8724 76.5396 77.7902 76.5175 77.7141 76.4734C77.6381 76.4292 77.5767 76.3703 77.5301 76.2967C77.486 76.2207 77.4639 76.1385 77.4639 76.0502C77.4639 75.9618 77.486 75.8796 77.5301 75.8036C77.5767 75.7275 77.6381 75.6674 77.7141 75.6233C77.7902 75.5791 77.8724 75.557 77.9607 75.557C78.049 75.557 78.1312 75.5791 78.2073 75.6233C78.2833 75.6674 78.3434 75.7275 78.3876 75.8036C78.4318 75.8796 78.4538 75.9618 78.4538 76.0502C78.4538 76.1385 78.4318 76.2207 78.3876 76.2967C78.3434 76.3703 78.2833 76.4292 78.2073 76.4734C78.1312 76.5175 78.049 76.5396 77.9607 76.5396ZM78.2551 77.5038C78.287 77.5038 78.3115 77.5124 78.3287 77.5296C78.3483 77.5468 78.3582 77.5713 78.3582 77.6032V80.8932C78.3557 81.3717 78.2281 81.7397 77.9754 81.9973C77.7252 82.2574 77.3694 82.3874 76.9082 82.3874H76.8861C76.8542 82.3874 76.8297 82.3776 76.8125 82.358C76.7929 82.3408 76.783 82.315 76.783 82.2807V81.7139C76.783 81.6452 76.8125 81.6109 76.8714 81.6109H76.9008C77.1044 81.6109 77.2639 81.5471 77.3792 81.4195C77.497 81.2919 77.5571 81.1141 77.5596 80.8859V77.6032C77.5596 77.5369 77.5927 77.5038 77.6589 77.5038H78.2551ZM78.9985 79.1047C78.9985 78.7956 79.0746 78.5122 79.2267 78.2546C79.3812 77.9945 79.5898 77.7896 79.8523 77.64C80.1148 77.4879 80.4031 77.4118 80.7171 77.4118C81.0287 77.4118 81.3158 77.4879 81.5783 77.64C81.8408 77.7896 82.0481 77.9945 82.2002 78.2546C82.3524 78.5122 82.4284 78.7956 82.4284 79.1047C82.4284 79.4138 82.3511 79.6972 82.1966 79.9548C82.0445 80.2124 81.8371 80.4173 81.5746 80.5694C81.3146 80.7191 81.0287 80.7939 80.7171 80.7939C80.4031 80.7939 80.1148 80.7191 79.8523 80.5694C79.5898 80.4197 79.3812 80.2161 79.2267 79.9585C79.0746 79.6984 78.9985 79.4138 78.9985 79.1047ZM79.8008 79.1047C79.8008 79.2691 79.8413 79.4212 79.9222 79.561C80.0032 79.7009 80.1136 79.8125 80.2534 79.8959C80.3933 79.9769 80.5466 80.0174 80.7135 80.0174C80.8803 80.0174 81.0336 79.9769 81.1735 79.8959C81.3158 79.8125 81.4274 79.7021 81.5084 79.5647C81.5893 79.4249 81.6298 79.2715 81.6298 79.1047C81.6298 78.9379 81.5893 78.7845 81.5084 78.6447C81.4274 78.5024 81.3158 78.3907 81.1735 78.3098C81.0336 78.2264 80.8803 78.1846 80.7135 78.1846C80.5466 78.1846 80.3933 78.2264 80.2534 78.3098C80.1136 78.3907 80.0032 78.5024 79.9222 78.6447C79.8413 78.7845 79.8008 78.9379 79.8008 79.1047Z" fill="#393130"/>
<path fill-rule="evenodd" clip-rule="evenodd" d="M55.98 10.398C56.8409 10.4003 57.4603 10.7838 57.8384 11.5484C58.6577 10.3565 59.5869 10.268 60.6259 11.2829C60.7053 11.53 60.8085 11.766 60.9356 11.9909C61.4647 11.4166 62.1136 11.2248 62.8825 11.4157C63.5369 11.7614 63.8909 12.3072 63.9444 13.0528C64.9294 12.2692 65.7995 12.3873 66.555 13.4068C66.5992 13.7595 66.6139 14.1135 66.5993 14.4687C67.2866 14.1062 67.9651 14.1209 68.6346 14.513C69.2285 15.0286 69.4055 15.6629 69.1656 16.4156C69.9199 16.1871 70.5836 16.3345 71.1567 16.8581C71.5493 17.4658 71.5641 18.0853 71.2009 18.7164C72.3507 18.5982 73.0587 19.0997 73.3248 20.2208C73.2638 20.6399 73.1164 21.0235 72.8823 21.3712C74.4125 21.5711 74.9287 22.3971 74.431 23.8491C74.2687 24.0113 74.1064 24.1736 73.9442 24.3358C75.2554 24.5553 75.7421 25.3075 75.4044 26.5924C75.1973 26.9026 74.9465 27.1681 74.6522 27.3888C75.1427 27.6678 75.5115 28.0512 75.7584 28.5392C75.8638 29.4198 75.5246 30.0688 74.7407 30.4861C75.4956 30.8753 75.8054 31.4948 75.6699 32.3445C75.4432 33.0112 74.9861 33.4241 74.2982 33.5834C74.5705 33.8408 74.7917 34.1358 74.9619 34.4683C75.1094 35.6941 74.5637 36.4021 73.3248 36.5922C73.8183 37.22 73.892 37.8985 73.546 38.6275C73.0709 39.1813 72.4662 39.4026 71.7319 39.2912C72.2675 40.1303 72.179 40.8971 71.4664 41.5921C70.9808 41.82 70.4794 41.8642 69.962 41.7248C69.9583 42.127 69.9435 42.54 69.9178 42.9637C69.4713 44.0047 68.7191 44.2997 67.6612 43.8487C67.6999 45.0627 67.1247 45.7411 65.9355 45.884C65.5429 45.8271 65.1742 45.7092 64.8294 45.5301C64.7124 46.8151 64.0044 47.3607 62.7055 47.1672C62.4744 47.054 62.2679 46.9066 62.0861 46.7247C62.0022 46.682 61.9137 46.6673 61.8206 46.6805C61.6261 47.8405 60.9477 48.2977 59.7852 48.0521C59.3575 47.8604 59.0478 47.5506 58.856 47.123C58.3663 48.4172 57.4962 48.7565 56.2455 48.1406C56.0458 47.8982 55.8688 47.6475 55.7145 47.3884C55.221 48.1069 54.5425 48.3872 53.6791 48.2291C53.0816 47.9625 52.7571 47.5053 52.7057 46.8575C52.6172 46.8575 52.5287 46.8575 52.4402 46.8575C52.3123 47.1767 52.0763 47.3979 51.7323 47.5212C50.4528 47.7324 49.7448 47.1867 49.6084 45.884C48.451 46.7586 47.5513 46.5522 46.9094 45.2646C46.8799 44.9696 46.8503 44.6746 46.8209 44.3796C45.6913 45.0482 44.8653 44.7827 44.343 43.5832C44.3026 43.1954 44.3026 42.8119 44.343 42.4328C43.3065 42.8729 42.5691 42.5779 42.1307 41.5478C42.0333 41.0597 42.1071 40.6025 42.3519 40.1762C40.8699 40.3164 40.1768 39.6527 40.2723 38.1851C40.3717 37.9418 40.5045 37.7206 40.6706 37.5214C39.4242 37.4847 38.8195 36.8505 38.8564 35.6188C38.9555 35.1994 39.1767 34.8602 39.5201 34.6011C38.2344 34.3167 37.7772 33.5351 38.1485 32.256C38.326 31.9753 38.5472 31.7394 38.8122 31.548C37.4117 30.7893 37.2347 29.8306 38.2812 28.672C38.4582 28.5835 38.6352 28.495 38.8122 28.4065C37.9576 27.9694 37.6479 27.2763 37.883 26.3269C38.1885 25.7833 38.6457 25.4441 39.2547 25.3092C38.5179 24.6857 38.3556 23.9335 38.7679 23.0526C39.1399 22.5939 39.6266 22.3579 40.2281 22.3447C39.4687 21.4425 39.5277 20.6018 40.4051 19.8226C40.8 19.6478 41.2129 19.5741 41.644 19.6014C41.0913 17.7647 41.7697 16.9388 43.6793 17.1235C43.288 15.8675 43.7305 15.1005 45.0068 14.8227C45.319 14.8565 45.6139 14.945 45.8917 15.0882C45.883 13.4879 46.6499 12.8536 48.1925 13.1856C48.34 13.2888 48.4875 13.392 48.635 13.4953C48.783 11.973 49.5794 11.4274 51.0243 11.8582C51.2242 12.0099 51.416 12.1721 51.5995 12.3449C51.8878 11.0216 52.6695 10.5644 53.9446 10.9732C54.2253 11.1507 54.4613 11.372 54.6526 11.6369C54.9278 11.037 55.3703 10.624 55.98 10.398Z" fill="#73C7D0"/>
<path d="M62.742 40.5744C62.8747 40.9727 61.8504 41.1455 61.1491 41.0611C59.7382 39.5509 58.8632 38.7236 57.0784 37.3002L52.4767 40.9727C52.0102 41.0418 51.7485 41.0371 51.2821 40.9727C51.1051 40.7514 50.9723 40.309 51.1936 39.955L56.0165 36.5922L51.99 33.4507C50.6626 35.0436 47.6538 32.6542 46.9016 31.5481L48.3175 32.3445C48.6715 32.5215 48.8927 32.1675 48.6715 31.9463L47.1228 30.8844C47.0344 30.7959 47.1671 30.5304 47.2998 30.5746L48.937 31.6808C49.2467 31.8578 49.4237 31.5481 49.2025 31.3268L47.6538 30.1764C47.5653 30.0879 47.6981 29.8667 47.8308 29.9109L49.4237 31.0613C49.7334 31.2826 49.9546 30.8401 49.6449 30.6631L48.2733 29.6454C48.5618 29.6014 48.7107 29.5968 48.937 29.6454C51.0663 30.6231 52.2555 31.3268 52.2555 33.0082L56.9899 35.9728L61.2819 33.0967C61.2818 33.0959 61.2378 32.5652 61.5031 31.8578C61.7686 31.1498 63.1676 30.0309 64.6889 29.4685C65.5738 29.1413 66.7898 29.38 66.4587 30.7516C66.149 32.0348 65.0428 33.1861 63.9809 33.8931C63.0973 34.4815 62.5924 34.3892 61.6801 33.7162L57.9633 36.5922C60.2283 38.0451 62.742 39.9992 62.742 40.5744Z" fill="#BD7426" stroke="#BD7426" stroke-width="0.0884938"/>
<path fill-rule="evenodd" clip-rule="evenodd" d="M54.9414 26.7439C55.7973 26.7292 56.6528 26.7439 57.5077 26.7882C57.7613 26.8044 57.9972 26.8486 58.2157 26.9209C57.1066 26.9389 56.0151 26.88 54.9414 26.7439Z" fill="#BF7322"/>
<path fill-rule="evenodd" clip-rule="evenodd" d="M54.676 24.3546C54.7055 24.3546 54.7351 24.3546 54.7645 24.3546C54.7365 25.1143 54.766 25.8665 54.853 26.6111C56.3571 26.6554 57.8615 26.6702 59.3662 26.6554C59.3662 25.8884 59.3662 25.1215 59.3662 24.3546C59.3957 24.3546 59.4252 24.3546 59.4547 24.3546C59.4547 25.151 59.4547 25.9474 59.4547 26.7439C59.0817 26.9152 58.6688 26.9742 58.2158 26.9209C57.9973 26.8486 57.7614 26.8043 57.5078 26.7881C56.6529 26.7439 55.7974 26.7292 54.9415 26.7439C54.8273 26.7649 54.7388 26.7354 54.676 26.6554C54.676 25.8884 54.676 25.1215 54.676 24.3546Z" fill="#BF7322"/>
<path d="M59.6318 22.6732C59.4587 23.1964 59.3997 23.7568 59.4548 24.3546H59.5643C59.588 23.7964 59.6105 23.236 59.6318 22.6732Z" fill="#EDB934"/>
<path d="M59.4548 24.3546V26.7439C59.4937 25.9522 59.5302 25.1557 59.5643 24.3546H59.4548Z" fill="#BF7322"/>
<path fill-rule="evenodd" clip-rule="evenodd" d="M54.5874 23.3812H54.4989C54.508 23.707 54.5196 24.0314 54.5336 24.3546H54.6759C54.589 24.0482 54.5595 23.7237 54.5874 23.3812Z" fill="#EDB934"/>
<path d="M54.6759 26.6554V24.3546H54.5336C54.5671 25.1291 54.6146 25.896 54.6759 26.6554Z" fill="#BF7322"/>
<path fill-rule="evenodd" clip-rule="evenodd" d="M54.7645 24.3546C56.2984 24.3546 57.8323 24.3546 59.3662 24.3546C59.3662 25.1215 59.3662 25.8884 59.3662 26.6554C57.8615 26.6702 56.3571 26.6554 54.853 26.6111C54.766 25.8665 54.7365 25.1143 54.7645 24.3546Z" fill="#BF7322"/>
<path fill-rule="evenodd" clip-rule="evenodd" d="M54.322 22.0537C54.4156 22.1511 54.4895 22.2691 54.5433 22.4077C54.5874 22.7309 54.6021 23.0553 54.5875 23.3811C54.558 23.3811 54.5285 23.3811 54.499 23.3811C54.5051 22.9284 54.4461 22.4859 54.322 22.0537Z" fill="#EDB934"/>
<path fill-rule="evenodd" clip-rule="evenodd" d="M61.136 18.4255C61.2693 18.6782 61.3282 18.9585 61.313 19.2662C61.3126 19.4751 61.2832 19.6668 61.2245 19.8414C61.234 19.3662 61.2046 18.8942 61.136 18.4255Z" fill="#99C39C"/>
<path fill-rule="evenodd" clip-rule="evenodd" d="M60.3397 17.8061C59.8527 17.8815 59.3808 17.8815 58.9238 17.8061C59.4108 17.7307 59.8827 17.7307 60.3397 17.8061Z" fill="#B4BE85"/>
<path fill-rule="evenodd" clip-rule="evenodd" d="M58.6581 17.2751C58.812 17.4104 58.9002 17.5868 58.9227 17.8044C58.7688 17.6692 58.6806 17.4928 58.6581 17.2751Z" fill="#BFC071"/>
<path fill-rule="evenodd" clip-rule="evenodd" d="M55.3839 17.0096C55.1283 17.3228 54.9513 17.6767 54.8529 18.0715C54.5517 17.9951 54.2568 17.8919 53.968 17.7618C53.7041 17.7177 53.4386 17.7029 53.1715 17.7175C53.7236 17.5497 54.2398 17.6382 54.7202 17.983C54.7728 17.8592 54.758 17.7412 54.6759 17.629C54.7444 17.5219 54.8181 17.5219 54.8971 17.629C54.9729 17.4195 55.0467 17.2129 55.1184 17.0096C55.2069 17.0096 55.2954 17.0096 55.3839 17.0096Z" fill="#8BC4B1"/>
<path fill-rule="evenodd" clip-rule="evenodd" d="M58.6583 17.275C58.6809 17.4934 58.7694 17.6704 58.9238 17.806C59.3808 17.8814 59.8527 17.8814 60.3397 17.806C60.7423 17.8253 60.9783 18.0318 61.0476 18.4255C61.1523 19.0178 61.1523 19.6077 61.0476 20.1953C61.0476 20.2248 61.0476 20.2544 61.0476 20.2838C60.7159 20.451 60.3619 20.5543 59.9857 20.5936C59.91 20.8091 59.8511 21.0304 59.8087 21.2573C59.8087 21.3752 59.8087 21.4933 59.8087 21.6112C59.6571 21.7117 59.5981 21.8592 59.6317 22.0537C59.6317 22.2602 59.6317 22.4667 59.6317 22.6732C59.4586 23.1963 59.3996 23.7568 59.4547 24.3546C59.4253 24.3546 59.3957 24.3546 59.3663 24.3546C57.8324 24.3546 56.2984 24.3546 54.7646 24.3546C54.7351 24.3546 54.7056 24.3546 54.6761 24.3546C54.5892 24.0482 54.5597 23.7237 54.5876 23.3811C54.6022 23.0553 54.5875 22.7309 54.5433 22.4077C54.4895 22.2691 54.4157 22.1511 54.3221 22.0537C54.3644 21.4269 54.1285 20.9402 53.6142 20.5936C53.2643 20.433 52.9104 20.3003 52.5522 20.1953C52.2956 19.4943 52.3398 18.8159 52.685 18.16C52.8484 18.0055 53.0107 17.858 53.1717 17.7175C53.4388 17.7029 53.7042 17.7177 53.9681 17.7618C54.257 17.8919 54.5519 17.9951 54.8531 18.0715C54.9515 17.6767 55.1285 17.3227 55.384 17.0096C55.689 16.8672 55.9839 16.7049 56.269 16.5229C57.0658 16.3672 57.8032 16.4999 58.4813 16.9211C58.525 17.0561 58.5841 17.1741 58.6583 17.275Z" fill="#EDB934"/>
<path fill-rule="evenodd" clip-rule="evenodd" d="M57.0655 21.6113C57.1821 22.1875 57.1821 22.7774 57.0655 23.3811C56.9512 22.7862 56.9512 22.1963 57.0655 21.6113Z" fill="#CD6D11"/>
<path fill-rule="evenodd" clip-rule="evenodd" d="M55.2954 21.2573C55.4847 21.4519 55.6175 21.688 55.6936 21.9652C55.7526 22.4077 55.7526 22.8502 55.6936 23.2926C55.3739 22.6525 55.2411 21.9741 55.2954 21.2573Z" fill="#C8720E"/>
<path fill-rule="evenodd" clip-rule="evenodd" d="M58.9236 21.5228C58.9998 22.0859 58.9261 22.6463 58.7024 23.2041C58.5925 22.6118 58.6663 22.0513 58.9236 21.5228Z" fill="#CA6E0C"/>
<path fill-rule="evenodd" clip-rule="evenodd" d="M58.2157 19.4874C58.5918 19.7156 58.9163 20.0105 59.1891 20.3723C59.1449 20.4018 59.1006 20.4313 59.0564 20.4608C58.7435 20.3678 58.4633 20.2203 58.2157 20.0183C57.3261 20.3655 56.4412 20.3655 55.5609 20.0183C55.3243 20.1297 55.0884 20.2035 54.8529 20.2396C55.0779 19.9997 55.3139 19.7784 55.5609 19.5759C55.6305 19.6415 55.6894 19.7152 55.7378 19.7971C56.3278 19.8561 56.9177 19.8561 57.5077 19.7971C57.7563 19.7004 57.9923 19.5971 58.2157 19.4874Z" fill="#CA6E11"/>
<circle cx="56.7686" cy="29.6012" r="14.7342" stroke="#EAF9FB" stroke-width="0.353975" stroke-linecap="round" stroke-dasharray="0.44 2.04"/>
<path fill-rule="evenodd" clip-rule="evenodd" d="M36.4592 55.0874C37.0794 55.0727 37.6988 55.0874 38.3176 55.1317C38.5023 55.2017 38.6646 55.305 38.8043 55.4414C38.8633 55.8839 38.8633 56.3263 38.8043 56.7688C38.6127 58.5361 38.4505 60.306 38.3176 62.0784C38.4731 64.0709 38.6501 66.062 38.8486 68.0518C38.9394 68.5309 38.792 68.9143 38.4061 69.2022C37.7572 69.2612 37.1081 69.2612 36.4592 69.2022C36.276 69.1183 36.1433 68.9855 36.061 68.804C36.002 68.391 36.002 67.978 36.061 67.565C36.2523 65.7389 36.4146 63.91 36.5477 62.0784C36.378 60.1009 36.201 58.1246 36.0167 56.1493C35.9263 55.6827 36.0738 55.3287 36.4592 55.0874Z" fill="#0D6699"/>
<path fill-rule="evenodd" clip-rule="evenodd" d="M49.1139 61.4589C48.9559 61.0116 49.0148 60.5986 49.2908 60.22C49.1412 58.9094 48.9937 57.6115 48.8484 56.3262C48.7542 55.8215 48.9312 55.4527 49.3793 55.2201C49.9988 55.161 50.6183 55.161 51.2377 55.2201C51.5872 55.4323 51.7642 55.7421 51.7687 56.1492C51.6372 57.1189 51.5487 58.0923 51.5032 59.0695C54.4881 58.7077 56.3612 59.9761 57.1225 62.8748C57.5441 65.2291 56.8214 67.1318 54.9544 68.5826C53.5507 69.3583 52.1053 69.4468 50.6183 68.8481C50.139 68.834 49.6669 68.775 49.2024 68.6711C48.9663 68.4941 48.8484 68.2581 48.8484 67.9632C49.059 65.8557 49.2212 63.7466 49.3351 61.6359C49.2724 61.5579 49.1986 61.499 49.1139 61.4589Z" fill="#0C6599"/>
<path fill-rule="evenodd" clip-rule="evenodd" d="M89.29 58.9811C90.0086 58.9503 90.7165 59.024 91.4138 59.2023C91.5174 59.2394 91.6059 59.2984 91.6793 59.3793C92.3873 59.4088 93.0952 59.4384 93.8032 59.4678C93.9899 59.5688 94.1518 59.7015 94.2899 59.866C94.1678 61.1804 94.0058 62.4931 93.8032 63.804C93.9297 65.1671 94.1067 66.5241 94.3341 67.8747C94.3607 68.2053 94.243 68.4707 93.9802 68.6712C93.2793 68.7805 92.5713 68.8395 91.8563 68.8482C89.3643 69.7631 87.4023 69.0994 85.9715 66.8571C85.4194 65.5252 85.2425 64.1388 85.4405 62.6979C86.0501 60.7458 87.3333 59.5069 89.29 58.9811Z" fill="#0D6599"/>
<path fill-rule="evenodd" clip-rule="evenodd" d="M24.2473 50.5742C24.3866 50.6129 24.4898 50.7014 24.557 50.8397C25.265 52.0786 25.9729 53.3175 26.6809 54.5564C26.7036 54.7792 26.6446 54.9856 26.5039 55.1759C26.1909 55.4123 25.9106 55.6777 25.6632 55.9723C26.0682 56.7531 26.496 57.52 26.9463 58.2732C27.1601 57.9933 27.3518 57.6983 27.5215 57.3882C27.0058 56.5348 26.8731 55.6203 27.1233 54.6449C27.5701 53.1161 28.4403 51.892 29.7339 50.9724C32.1735 50.1063 33.2797 50.9765 33.0524 53.583C32.6775 55.235 31.8072 56.5476 30.4418 57.521C29.8071 57.8641 29.1286 58.0558 28.4065 58.0962C28.1522 58.5607 27.8867 59.0179 27.61 59.4678C27.7621 59.5596 27.9243 59.6039 28.0968 59.6006C30.0435 63.0488 32.0199 66.4705 34.0258 69.8659C34.0614 69.9873 34.1057 70.1052 34.1586 70.2198C33.517 70.5922 32.8829 70.9757 32.256 71.3703C30.4495 68.1995 28.6205 65.0432 26.7693 61.9014C24.852 65.0872 22.9346 68.273 21.0172 71.4588C20.3751 71.1305 19.7705 70.7471 19.2031 70.3083C21.2975 66.8276 23.3918 63.3468 25.4862 59.8661C25.6669 60.0353 25.8439 60.05 26.0171 59.9103C25.4387 58.8267 24.8044 57.7795 24.1145 56.7688C23.725 56.9214 23.3268 57.0394 22.9199 57.1228C22.7258 57.1382 22.5635 57.0791 22.4331 56.9458C21.6921 55.6259 20.9399 54.3133 20.1766 53.0078C21.5537 52.2166 22.9107 51.4054 24.2473 50.5742Z" fill="#0E6699"/>
<path fill-rule="evenodd" clip-rule="evenodd" d="M30.9727 52.2556C31.1917 52.308 31.3245 52.426 31.3709 52.6095C30.5983 53.8253 29.8608 55.0643 29.1586 56.3263C28.9309 56.4575 28.7391 56.4133 28.5834 56.1935C29.3697 54.8711 30.1662 53.5584 30.9727 52.2556Z" fill="#ECF3F5"/>
<path fill-rule="evenodd" clip-rule="evenodd" d="M31.8576 52.7866C32.1231 52.8337 32.2558 52.9812 32.2558 53.229C31.5172 54.5302 30.7356 55.7986 29.9107 57.0343C29.6424 56.989 29.5391 56.8415 29.601 56.5918C30.3552 55.3185 31.1074 54.0501 31.8576 52.7866Z" fill="#EDF3F5"/>
<path fill-rule="evenodd" clip-rule="evenodd" d="M29.9994 51.7245C30.3091 51.7241 30.4418 51.8716 30.3976 52.167C29.6368 53.4241 28.8551 54.663 28.0525 55.8838C27.7045 55.8082 27.6308 55.6312 27.8313 55.3528C28.5526 54.1467 29.2753 52.9373 29.9994 51.7245Z" fill="#EBF3F6"/>
<path fill-rule="evenodd" clip-rule="evenodd" d="M42.9193 58.9811C43.7832 58.9017 44.6091 59.0344 45.3971 59.3793C46.046 59.4088 46.6951 59.4383 47.344 59.4678C47.6907 59.5782 47.8677 59.8142 47.875 60.1757C47.6807 61.4567 47.5037 62.7399 47.344 64.0252C47.521 65.3231 47.698 66.621 47.875 67.919C47.9325 68.2608 47.8145 68.5115 47.521 68.6712C46.8494 68.7801 46.1709 68.839 45.4856 68.8481C42.4697 69.8107 40.3605 68.8226 39.1583 65.8836C38.8179 64.4773 38.8768 63.0908 39.3353 61.7244C40.094 60.2192 41.2886 59.3048 42.9193 58.9811Z" fill="#0B6599"/>
<path fill-rule="evenodd" clip-rule="evenodd" d="M82.6531 55.1759C83.2733 55.1612 83.8928 55.1759 84.5115 55.2201C84.7843 55.2897 84.976 55.4519 85.0867 55.7068C85.0396 57.1432 84.9068 58.5738 84.6885 59.9988C84.7559 60.3159 84.8444 60.6257 84.954 60.928C84.9392 61.0459 84.9245 61.164 84.9097 61.2819C84.7316 61.4617 84.5989 61.6683 84.5115 61.9014C84.7304 63.8906 84.9368 65.8818 85.131 67.8747C85.1636 68.3412 84.9572 68.6361 84.5115 68.7597C84.0985 68.7891 83.6856 68.8187 83.2726 68.8482C80.3489 69.8126 78.2693 68.8834 77.0338 66.0606C76.8231 64.9784 76.7641 63.887 76.8568 62.7863C77.3661 60.8414 78.5903 59.5877 80.5293 59.0253C81.1807 58.9649 81.8297 58.9796 82.4762 59.0696C82.3324 57.9227 82.2586 56.7723 82.2549 55.6183C82.406 55.4823 82.5387 55.3348 82.6531 55.1759Z" fill="#0D6599"/>
<path fill-rule="evenodd" clip-rule="evenodd" d="M57.8749 59.5121C58.5245 59.4974 59.1735 59.5121 59.8218 59.5563C60.1851 59.7154 60.3621 59.9955 60.3527 60.397C60.2367 61.6671 60.104 62.9355 59.9545 64.2023C59.8587 64.9332 59.9472 65.6412 60.22 66.3261C60.8994 67.074 61.681 67.2067 62.5651 66.7243C62.8957 66.314 63.1465 65.8567 63.3173 65.3527C63.5005 65.1503 63.7217 65.0029 63.981 64.9102C64.0832 64.6495 64.0979 64.384 64.0252 64.1138C63.8192 62.8626 63.6274 61.6089 63.45 60.3528C63.5814 59.5761 64.0386 59.2959 64.8217 59.5121C65.1314 59.5269 65.4411 59.5416 65.7509 59.5563C66.1165 59.6563 66.3231 59.8923 66.3703 60.2643C66.1236 61.6895 65.9171 63.1202 65.7509 64.5562C65.9932 65.7563 66.1997 66.9657 66.3703 68.1845C66.317 68.4608 66.1694 68.682 65.9278 68.8482C65.2395 69.0084 64.5463 69.0232 63.8482 68.8924C62.5816 69.4305 61.3575 69.3567 60.1757 68.6712C59.1086 67.8112 58.3564 66.7345 57.9192 65.4412C57.692 63.6465 57.5445 61.8472 57.4767 60.043C57.5946 59.8519 57.7273 59.6749 57.8749 59.5121Z" fill="#0E6699"/>
<path fill-rule="evenodd" clip-rule="evenodd" d="M88.8476 61.5475C89.4281 61.496 89.9883 61.5698 90.529 61.7687C90.9184 62.1763 91.3608 62.486 91.8564 62.6979C91.9033 63.1707 91.9626 63.6426 92.0334 64.1138C91.9599 64.5853 91.8865 65.0573 91.8121 65.5297C91.6502 65.583 91.4883 65.6421 91.3254 65.7067C90.1635 67.0729 88.9688 67.1024 87.7414 65.7952C86.7122 64.3154 86.9039 63.0027 88.3166 61.8572C88.5137 61.7739 88.691 61.6706 88.8476 61.5475Z" fill="#F4F6F6"/>
<path fill-rule="evenodd" clip-rule="evenodd" d="M55.3083 63.3172C55.4182 63.7311 55.4182 64.144 55.3083 64.5561C54.9519 66.2857 53.9194 66.9494 52.211 66.5472C52.0193 66.4145 51.8276 66.2817 51.6358 66.149C51.4342 64.9157 51.3163 63.6767 51.2819 62.4323C51.9028 61.6134 52.714 61.3332 53.7154 61.5916C54.4799 61.9576 55.0109 62.5328 55.3083 63.3172Z" fill="#F5F6F6"/>
<path fill-rule="evenodd" clip-rule="evenodd" d="M80.1753 61.5473C81.0948 61.3637 81.8764 61.5996 82.5204 62.2553C82.6513 62.4218 82.725 62.6136 82.7416 62.8305C82.6012 63.9715 82.439 65.1072 82.2549 66.2375C80.9492 67.052 79.8578 66.8161 78.9806 65.5296C78.4411 64.7571 78.3526 63.9312 78.7152 63.0517C79.0738 62.4131 79.5605 61.9116 80.1753 61.5473Z" fill="#F4F6F6"/>
<path fill-rule="evenodd" clip-rule="evenodd" d="M42.4769 61.5474C43.1484 61.4545 43.7678 61.5872 44.3352 61.9456C44.6049 62.3189 44.9588 62.5697 45.3972 62.6978C45.6442 63.6449 45.6295 64.5889 45.3529 65.5296C45.2291 65.5939 45.0964 65.6382 44.9547 65.6623C44.0621 66.7596 43.0002 66.966 41.7689 66.2818C40.2546 64.8366 40.2546 63.3912 41.7689 61.9456C41.9989 61.7867 42.2349 61.654 42.4769 61.5474Z" fill="#F5F6F6"/>
<path fill-rule="evenodd" clip-rule="evenodd" d="M73.715 66.503C73.8691 65.6382 73.9576 64.7533 73.9805 63.8482C73.9988 63.497 73.9397 63.1725 73.8035 62.8748C73.6039 62.3364 73.2205 61.9972 72.6531 61.8571C71.9669 61.6919 71.377 61.8542 70.8832 62.3438C70.6209 62.7305 70.3997 63.1434 70.2195 63.5827C70.0578 63.7226 69.8808 63.8407 69.6886 63.9367C69.6171 64.1068 69.5728 64.2838 69.5558 64.4676C69.8635 65.8138 70.0848 67.1707 70.2195 68.5384C70.1228 68.8114 69.9606 69.0327 69.7328 69.2021C69.0839 69.2611 68.4349 69.2611 67.786 69.2021C67.4601 69.0106 67.3126 68.7303 67.3435 68.3614C67.4662 66.9616 67.6727 65.5751 67.9629 64.2022C67.7193 63.0129 67.5129 61.8182 67.3435 60.6182C67.3077 60.27 67.4552 60.034 67.786 59.9102C68.4824 59.8407 69.1756 59.8554 69.8656 59.9545C71.7774 59.1535 73.3997 59.5369 74.7327 61.1049C75.6894 62.5882 76.2794 64.2107 76.5026 65.972C76.5616 66.8864 76.5616 67.8009 76.5026 68.7153C76.4331 68.8734 76.33 69.0061 76.1929 69.1136C75.4646 69.2555 74.7272 69.285 73.9805 69.2021C73.8773 69.0399 73.7741 68.8776 73.6708 68.7153C73.6364 67.9773 73.6512 67.2399 73.715 66.503Z" fill="#0D6599"/>
<path fill-rule="evenodd" clip-rule="evenodd" d="M73.8038 62.8748C73.94 63.1726 73.999 63.497 73.9808 63.8482C73.9579 64.7534 73.8694 65.6383 73.7153 66.5031C73.7872 65.2951 73.8167 64.0857 73.8038 62.8748Z" fill="#D2EAF5"/>
</svg>
