<svg width="32" height="32" viewBox="0 0 32 32" fill="none" xmlns="http://www.w3.org/2000/svg">
<rect width="32" height="32" rx="16" fill="#2B3633"/>
<path d="M21.6507 10.3173C20.9159 9.57506 20.0406 8.98654 19.0759 8.58609C18.1113 8.18564 17.0765 7.98127 16.0321 7.98491C11.6558 7.98491 8.08902 11.5517 8.08902 15.9279C8.08902 17.3306 8.45772 18.6932 9.14703 19.8955L8.0249 24.0153L12.2329 22.9092C13.3951 23.5424 14.7015 23.879 16.0321 23.879C20.4083 23.879 23.9751 20.3122 23.9751 15.936C23.9751 13.8119 23.1495 11.8162 21.6507 10.3173ZM16.0321 22.5324C14.8458 22.5324 13.6836 22.2118 12.6657 21.6107L12.4252 21.4664L9.9245 22.1237L10.5898 19.6871L10.4295 19.4386C9.7704 18.3862 9.42046 17.1697 9.41954 15.9279C9.41954 12.2891 12.3852 9.32345 16.024 9.32345C17.7874 9.32345 19.4465 10.0128 20.6889 11.2631C21.304 11.8754 21.7915 12.6038 22.1231 13.4059C22.4547 14.208 22.6238 15.068 22.6205 15.936C22.6366 19.5749 19.6709 22.5324 16.0321 22.5324ZM19.6549 17.5951C19.4545 17.4989 18.4767 17.018 18.3004 16.9459C18.116 16.8818 17.9878 16.8497 17.8515 17.0421C17.7152 17.2424 17.3385 17.6913 17.2263 17.8195C17.1141 17.9558 16.9939 17.9718 16.7935 17.8676C16.5931 17.7714 15.9519 17.555 15.1985 16.8818C14.6054 16.3528 14.2126 15.7035 14.0924 15.5031C13.9802 15.3028 14.0764 15.1986 14.1806 15.0944C14.2687 15.0062 14.3809 14.8619 14.4771 14.7497C14.5733 14.6375 14.6134 14.5493 14.6775 14.4211C14.7416 14.2848 14.7096 14.1726 14.6615 14.0764C14.6134 13.9803 14.2126 13.0024 14.0523 12.6017C13.892 12.2169 13.7237 12.265 13.6035 12.257H13.2187C13.0825 12.257 12.8741 12.3051 12.6897 12.5055C12.5134 12.7058 12.0004 13.1868 12.0004 14.1646C12.0004 15.1425 12.7138 16.0883 12.81 16.2165C12.9061 16.3528 14.2126 18.3565 16.2004 19.2142C16.6733 19.4226 17.042 19.5428 17.3305 19.631C17.8034 19.7832 18.2362 19.7592 18.5809 19.7111C18.9656 19.655 19.7591 19.2302 19.9194 18.7653C20.0877 18.3004 20.0877 17.9077 20.0316 17.8195C19.9755 17.7314 19.8553 17.6913 19.6549 17.5951Z" fill="white"/>
</svg>
